<?xml version="1.0" encoding="utf-8"?>
<!-- Generator: Adobe Illustrator 22.0.0, SVG Export Plug-In . SVG Version: 6.00 Build 0)  -->
<svg version="1.1" xmlns="http://www.w3.org/2000/svg" xmlns:xlink="http://www.w3.org/1999/xlink" x="0px" y="0px"
	 viewBox="0 0 516 198" style="enable-background:new 0 0 516 198;" xml:space="preserve">
<style type="text/css">
	.st0{fill:#29A748;}
	.st1{fill:#FFFFFF;}
	.st2{fill:#7FD371;}
	.st3{fill:#6DBC61;}
	.st4{fill:#549B45;}
	.st5{fill:#5CAA4F;}
</style>
<g id="Camada_3">
</g>
<g id="Camada_2">
</g>
<g id="Camada_1">
	<g>
		<path class="st0" d="M494.3,152.8H90c-6.6,0-12-5.4-12-12V57.2c0-6.6,5.4-12,12-12h404.2c6.6,0,12,5.4,12,12v83.6
			C506.3,147.4,500.9,152.8,494.3,152.8z"/>
		<g>
			<path class="st1" d="M252.3,87.1c0.2,0,0.4,0.1,0.5,0.2l1.5,1.6c-0.8,1-1.8,1.8-3,2.3S248.6,92,247,92c-1.5,0-2.8-0.3-4-0.8
				s-2.2-1.2-3-2.1c-0.8-0.9-1.5-2-1.9-3.2s-0.7-2.6-0.7-4.1c0-1.5,0.2-2.9,0.7-4.1c0.5-1.3,1.2-2.3,2.1-3.2s2-1.6,3.3-2.1
				c1.3-0.5,2.7-0.8,4.2-0.8c1.5,0,2.8,0.2,3.9,0.7c1.1,0.5,2.1,1.1,2.9,1.9l-1.2,1.7c-0.1,0.1-0.2,0.2-0.3,0.3
				c-0.1,0.1-0.3,0.1-0.5,0.1c-0.2,0-0.4-0.1-0.7-0.3c-0.2-0.2-0.5-0.3-0.8-0.5c-0.3-0.2-0.8-0.4-1.3-0.5c-0.5-0.2-1.2-0.2-2-0.2
				c-0.9,0-1.8,0.2-2.6,0.5c-0.8,0.3-1.5,0.8-2,1.4c-0.6,0.6-1,1.4-1.3,2.2c-0.3,0.9-0.5,1.9-0.5,2.9c0,1.1,0.2,2.1,0.5,3
				s0.8,1.6,1.3,2.2c0.5,0.6,1.2,1.1,1.9,1.4c0.7,0.3,1.5,0.5,2.4,0.5c0.5,0,1,0,1.4-0.1c0.4-0.1,0.8-0.1,1.1-0.3s0.7-0.3,1-0.5
				s0.6-0.4,0.9-0.7c0.1-0.1,0.2-0.1,0.3-0.2S252.1,87.1,252.3,87.1z"/>
			<path class="st1" d="M260.5,71.2v20.6h-3.4V71.2H260.5z"/>
			<path class="st1" d="M268.5,73.4c0,0.3-0.1,0.6-0.2,0.8c-0.1,0.3-0.3,0.5-0.5,0.7c-0.2,0.2-0.4,0.3-0.7,0.5s-0.6,0.2-0.9,0.2
				c-0.3,0-0.6-0.1-0.8-0.2c-0.3-0.1-0.5-0.3-0.7-0.5c-0.2-0.2-0.3-0.4-0.5-0.7c-0.1-0.3-0.2-0.5-0.2-0.8c0-0.3,0.1-0.6,0.2-0.9
				c0.1-0.3,0.3-0.5,0.5-0.7c0.2-0.2,0.4-0.3,0.7-0.5c0.3-0.1,0.5-0.2,0.8-0.2c0.3,0,0.6,0.1,0.9,0.2s0.5,0.3,0.7,0.5
				c0.2,0.2,0.4,0.4,0.5,0.7C268.5,72.8,268.5,73.1,268.5,73.4z M268,77.6v14.2h-3.4V77.6H268z"/>
			<path class="st1" d="M284,77.6v18.9h-3.4V90c-0.3,0.3-0.6,0.6-0.9,0.8s-0.7,0.5-1,0.6c-0.4,0.2-0.7,0.3-1.2,0.4s-0.8,0.1-1.3,0.1
				c-0.8,0-1.5-0.2-2.1-0.5s-1.2-0.8-1.7-1.4c-0.5-0.6-0.8-1.4-1.1-2.3c-0.3-0.9-0.4-1.9-0.4-3.1c0-1.1,0.1-2,0.4-2.9
				s0.7-1.7,1.2-2.4c0.5-0.7,1.2-1.2,1.9-1.6c0.7-0.4,1.6-0.6,2.5-0.6c0.4,0,0.8,0,1.2,0.1s0.7,0.2,1,0.3c0.3,0.1,0.6,0.3,0.9,0.5
				c0.3,0.2,0.5,0.4,0.7,0.7l0.2-0.8c0-0.2,0.1-0.4,0.3-0.5c0.2-0.1,0.3-0.2,0.6-0.2H284z M277.3,89.3c0.7,0,1.3-0.1,1.8-0.4
				s1-0.7,1.4-1.3v-6.4c-0.4-0.5-0.8-0.8-1.3-1c-0.5-0.2-0.9-0.3-1.5-0.3c-0.5,0-1,0.1-1.4,0.3c-0.4,0.2-0.8,0.5-1.1,0.9
				c-0.3,0.4-0.5,0.9-0.7,1.5s-0.2,1.3-0.2,2.1c0,0.8,0.1,1.5,0.2,2.1c0.1,0.6,0.3,1,0.6,1.4s0.6,0.6,0.9,0.8
				C276.5,89.2,276.9,89.3,277.3,89.3z"/>
			<path class="st1" d="M290.8,77.6v9c0,0.9,0.2,1.5,0.6,2c0.4,0.5,1,0.7,1.8,0.7c0.6,0,1.1-0.1,1.7-0.4c0.5-0.3,1-0.6,1.5-1.1V77.6
				h3.4v14.2h-2.1c-0.4,0-0.7-0.2-0.9-0.6l-0.2-1.1c-0.3,0.3-0.6,0.6-0.9,0.8c-0.3,0.2-0.6,0.5-1,0.6c-0.4,0.2-0.7,0.3-1.2,0.4
				s-0.9,0.1-1.3,0.1c-0.8,0-1.5-0.1-2.1-0.4c-0.6-0.3-1.1-0.6-1.5-1.1s-0.7-1.1-0.9-1.7c-0.2-0.7-0.3-1.4-0.3-2.2v-9H290.8z"/>
			<path class="st1" d="M309.3,77.4c0.9,0,1.7,0.1,2.5,0.4c0.8,0.3,1.4,0.7,1.9,1.3c0.5,0.6,1,1.2,1.3,2s0.5,1.7,0.5,2.7
				c0,0.3,0,0.5,0,0.6c0,0.2-0.1,0.3-0.1,0.4c-0.1,0.1-0.1,0.2-0.2,0.2c-0.1,0-0.2,0.1-0.4,0.1h-8.8c0.1,1.5,0.5,2.5,1.2,3.2
				c0.7,0.7,1.6,1,2.7,1c0.6,0,1-0.1,1.4-0.2c0.4-0.1,0.8-0.3,1.1-0.4c0.3-0.2,0.6-0.3,0.8-0.4c0.2-0.1,0.4-0.2,0.7-0.2
				c0.1,0,0.3,0,0.4,0.1c0.1,0.1,0.2,0.1,0.3,0.2l1,1.2c-0.4,0.4-0.8,0.8-1.3,1.1c-0.5,0.3-1,0.5-1.5,0.7c-0.5,0.2-1,0.3-1.6,0.4
				c-0.5,0.1-1,0.1-1.5,0.1c-1,0-1.9-0.2-2.8-0.5c-0.9-0.3-1.6-0.8-2.2-1.5s-1.1-1.4-1.5-2.4c-0.4-0.9-0.5-2-0.5-3.3
				c0-1,0.2-1.9,0.5-2.7c0.3-0.9,0.8-1.6,1.4-2.2c0.6-0.6,1.3-1.1,2.1-1.5C307.3,77.5,308.3,77.4,309.3,77.4z M309.4,79.8
				c-1,0-1.8,0.3-2.3,0.8c-0.6,0.6-0.9,1.4-1.1,2.4h6.4c0-0.4-0.1-0.9-0.2-1.3c-0.1-0.4-0.3-0.7-0.6-1c-0.2-0.3-0.6-0.5-0.9-0.7
				C310.4,79.9,309.9,79.8,309.4,79.8z"/>
			<path class="st1" d="M334.8,91.8h-1.5c-0.3,0-0.6,0-0.8-0.1c-0.2-0.1-0.3-0.3-0.4-0.6l-0.3-1c-0.4,0.3-0.7,0.6-1.1,0.9
				c-0.3,0.2-0.7,0.5-1.1,0.6s-0.8,0.3-1.2,0.4c-0.4,0.1-0.9,0.1-1.4,0.1c-0.6,0-1.2-0.1-1.7-0.2s-0.9-0.4-1.3-0.7
				c-0.4-0.3-0.6-0.7-0.9-1.2c-0.2-0.5-0.3-1-0.3-1.7c0-0.5,0.1-1.1,0.4-1.6c0.3-0.5,0.8-1,1.4-1.4s1.5-0.8,2.6-1.1
				c1.1-0.3,2.4-0.4,4.1-0.4v-0.8c0-1-0.2-1.7-0.6-2.1c-0.4-0.5-1-0.7-1.8-0.7c-0.6,0-1,0.1-1.4,0.2c-0.4,0.1-0.7,0.3-1,0.4
				s-0.5,0.3-0.8,0.4s-0.5,0.2-0.8,0.2c-0.2,0-0.4-0.1-0.6-0.2c-0.2-0.1-0.3-0.3-0.4-0.4l-0.6-1.1c1.6-1.5,3.6-2.2,5.9-2.2
				c0.8,0,1.6,0.1,2.2,0.4c0.7,0.3,1.2,0.7,1.7,1.1c0.5,0.5,0.8,1.1,1,1.7c0.2,0.7,0.4,1.4,0.4,2.2V91.8z M328.1,89.7
				c0.4,0,0.7,0,1-0.1s0.6-0.2,0.8-0.3c0.3-0.1,0.5-0.3,0.8-0.5c0.2-0.2,0.5-0.4,0.7-0.7v-2.4c-1,0-1.8,0.1-2.5,0.2
				c-0.7,0.1-1.2,0.3-1.6,0.5c-0.4,0.2-0.7,0.4-0.9,0.7c-0.2,0.3-0.3,0.5-0.3,0.9c0,0.6,0.2,1,0.5,1.3S327.6,89.7,328.1,89.7z"/>
			<path class="st1" d="M350.2,77.6v18.9h-3.4V90c-0.3,0.3-0.6,0.6-0.9,0.8s-0.7,0.5-1,0.6c-0.4,0.2-0.7,0.3-1.2,0.4
				s-0.8,0.1-1.3,0.1c-0.8,0-1.5-0.2-2.1-0.5s-1.2-0.8-1.7-1.4c-0.5-0.6-0.8-1.4-1.1-2.3c-0.3-0.9-0.4-1.9-0.4-3.1
				c0-1.1,0.1-2,0.4-2.9s0.7-1.7,1.2-2.4c0.5-0.7,1.2-1.2,1.9-1.6c0.7-0.4,1.6-0.6,2.5-0.6c0.4,0,0.8,0,1.2,0.1s0.7,0.2,1,0.3
				c0.3,0.1,0.6,0.3,0.9,0.5c0.3,0.2,0.5,0.4,0.7,0.7l0.2-0.8c0-0.2,0.1-0.4,0.3-0.5c0.2-0.1,0.3-0.2,0.6-0.2H350.2z M343.6,89.3
				c0.7,0,1.3-0.1,1.8-0.4s1-0.7,1.4-1.3v-6.4c-0.4-0.5-0.8-0.8-1.3-1c-0.5-0.2-0.9-0.3-1.5-0.3c-0.5,0-1,0.1-1.4,0.3
				c-0.4,0.2-0.8,0.5-1.1,0.9c-0.3,0.4-0.5,0.9-0.7,1.5s-0.2,1.3-0.2,2.1c0,0.8,0.1,1.5,0.2,2.1c0.1,0.6,0.3,1,0.6,1.4
				s0.6,0.6,0.9,0.8C342.7,89.2,343.2,89.3,343.6,89.3z"/>
			<path class="st1" d="M357.1,77.6v9c0,0.9,0.2,1.5,0.6,2c0.4,0.5,1,0.7,1.8,0.7c0.6,0,1.1-0.1,1.7-0.4c0.5-0.3,1-0.6,1.5-1.1V77.6
				h3.4v14.2H364c-0.4,0-0.7-0.2-0.9-0.6l-0.2-1.1c-0.3,0.3-0.6,0.6-0.9,0.8c-0.3,0.2-0.6,0.5-1,0.6c-0.4,0.2-0.7,0.3-1.2,0.4
				s-0.9,0.1-1.3,0.1c-0.8,0-1.5-0.1-2.1-0.4c-0.6-0.3-1.1-0.6-1.5-1.1s-0.7-1.1-0.9-1.7c-0.2-0.7-0.3-1.4-0.3-2.2v-9H357.1z"/>
			<path class="st1" d="M373.9,73.4c0,0.3-0.1,0.6-0.2,0.8c-0.1,0.3-0.3,0.5-0.5,0.7c-0.2,0.2-0.4,0.3-0.7,0.5s-0.6,0.2-0.9,0.2
				c-0.3,0-0.6-0.1-0.8-0.2c-0.3-0.1-0.5-0.3-0.7-0.5c-0.2-0.2-0.3-0.4-0.5-0.7c-0.1-0.3-0.2-0.5-0.2-0.8c0-0.3,0.1-0.6,0.2-0.9
				c0.1-0.3,0.3-0.5,0.5-0.7c0.2-0.2,0.4-0.3,0.7-0.5c0.3-0.1,0.5-0.2,0.8-0.2c0.3,0,0.6,0.1,0.9,0.2s0.5,0.3,0.7,0.5
				c0.2,0.2,0.4,0.4,0.5,0.7C373.8,72.8,373.9,73.1,373.9,73.4z M373.4,77.6v14.2h-3.4V77.6H373.4z"/>
			<path class="st1" d="M388.5,77.4c0.9,0,1.7,0.1,2.5,0.4c0.8,0.3,1.4,0.7,1.9,1.3c0.5,0.6,1,1.2,1.3,2s0.5,1.7,0.5,2.7
				c0,0.3,0,0.5,0,0.6c0,0.2-0.1,0.3-0.1,0.4c-0.1,0.1-0.1,0.2-0.2,0.2c-0.1,0-0.2,0.1-0.4,0.1H385c0.1,1.5,0.5,2.5,1.2,3.2
				c0.7,0.7,1.6,1,2.7,1c0.6,0,1-0.1,1.4-0.2c0.4-0.1,0.8-0.3,1.1-0.4c0.3-0.2,0.6-0.3,0.8-0.4c0.2-0.1,0.4-0.2,0.7-0.2
				c0.1,0,0.3,0,0.4,0.1c0.1,0.1,0.2,0.1,0.3,0.2l1,1.2c-0.4,0.4-0.8,0.8-1.3,1.1c-0.5,0.3-1,0.5-1.5,0.7c-0.5,0.2-1,0.3-1.6,0.4
				c-0.5,0.1-1,0.1-1.5,0.1c-1,0-1.9-0.2-2.8-0.5c-0.9-0.3-1.6-0.8-2.2-1.5s-1.1-1.4-1.5-2.4c-0.4-0.9-0.5-2-0.5-3.3
				c0-1,0.2-1.9,0.5-2.7c0.3-0.9,0.8-1.6,1.4-2.2c0.6-0.6,1.3-1.1,2.1-1.5C386.4,77.5,387.4,77.4,388.5,77.4z M388.5,79.8
				c-1,0-1.8,0.3-2.3,0.8c-0.6,0.6-0.9,1.4-1.1,2.4h6.4c0-0.4-0.1-0.9-0.2-1.3c-0.1-0.4-0.3-0.7-0.6-1c-0.2-0.3-0.6-0.5-0.9-0.7
				C389.5,79.9,389,79.8,388.5,79.8z"/>
			<path class="st1" d="M402.7,91.8V77.6h2.1c0.4,0,0.7,0.2,0.9,0.6l0.2,1.1c0.3-0.3,0.6-0.6,0.9-0.8c0.3-0.2,0.7-0.4,1-0.6
				c0.4-0.2,0.7-0.3,1.1-0.4c0.4-0.1,0.9-0.1,1.3-0.1c0.8,0,1.5,0.1,2.1,0.4c0.6,0.3,1.1,0.6,1.5,1.1c0.4,0.5,0.7,1,0.9,1.7
				c0.2,0.7,0.3,1.4,0.3,2.2v9.1h-3.4v-9.1c0-0.9-0.2-1.5-0.6-2s-1-0.7-1.8-0.7c-0.6,0-1.1,0.1-1.7,0.4c-0.5,0.3-1,0.6-1.5,1.1v10.3
				H402.7z"/>
			<path class="st1" d="M424.6,77.4c1.1,0,2,0.2,2.9,0.5c0.9,0.3,1.6,0.8,2.2,1.5c0.6,0.6,1.1,1.4,1.4,2.3c0.3,0.9,0.5,1.9,0.5,3
				c0,1.1-0.2,2.1-0.5,3c-0.3,0.9-0.8,1.7-1.4,2.3c-0.6,0.6-1.3,1.1-2.2,1.5c-0.9,0.3-1.8,0.5-2.9,0.5c-1.1,0-2-0.2-2.9-0.5
				c-0.9-0.3-1.6-0.8-2.2-1.5c-0.6-0.6-1.1-1.4-1.4-2.3c-0.3-0.9-0.5-1.9-0.5-3c0-1.1,0.2-2.1,0.5-3c0.3-0.9,0.8-1.7,1.4-2.3
				c0.6-0.6,1.4-1.1,2.2-1.5C422.6,77.5,423.5,77.4,424.6,77.4z M424.6,89.4c1.2,0,2.1-0.4,2.6-1.2s0.9-2,0.9-3.5s-0.3-2.7-0.9-3.5
				s-1.4-1.2-2.6-1.2c-1.2,0-2.1,0.4-2.7,1.2c-0.6,0.8-0.9,2-0.9,3.5s0.3,2.7,0.9,3.5S423.4,89.4,424.6,89.4z"/>
			<path class="st1" d="M442.7,80.3c-0.1,0.1-0.2,0.3-0.3,0.3s-0.2,0.1-0.4,0.1c-0.2,0-0.3,0-0.5-0.1s-0.4-0.2-0.7-0.3
				c-0.3-0.1-0.5-0.2-0.9-0.3c-0.3-0.1-0.7-0.1-1.1-0.1c-0.7,0-1.2,0.1-1.6,0.4c-0.4,0.3-0.6,0.7-0.6,1.1c0,0.3,0.1,0.6,0.3,0.8
				c0.2,0.2,0.5,0.4,0.8,0.5c0.3,0.2,0.7,0.3,1.1,0.4c0.4,0.1,0.8,0.3,1.3,0.4s0.9,0.3,1.3,0.5s0.8,0.4,1.1,0.7
				c0.3,0.3,0.6,0.6,0.8,1c0.2,0.4,0.3,0.9,0.3,1.5c0,0.7-0.1,1.3-0.4,1.9s-0.6,1.1-1.1,1.5c-0.5,0.4-1.1,0.7-1.8,1
				c-0.7,0.2-1.5,0.4-2.4,0.4c-0.5,0-1,0-1.4-0.1c-0.5-0.1-0.9-0.2-1.3-0.4c-0.4-0.2-0.8-0.3-1.2-0.6c-0.4-0.2-0.7-0.4-1-0.7
				l0.8-1.3c0.1-0.2,0.2-0.3,0.4-0.4c0.1-0.1,0.3-0.1,0.5-0.1s0.4,0.1,0.6,0.2c0.2,0.1,0.4,0.2,0.7,0.4c0.2,0.1,0.5,0.3,0.9,0.4
				c0.3,0.1,0.8,0.2,1.3,0.2c0.4,0,0.8,0,1-0.1c0.3-0.1,0.5-0.2,0.7-0.4s0.3-0.3,0.4-0.5s0.1-0.4,0.1-0.6c0-0.3-0.1-0.6-0.3-0.8
				c-0.2-0.2-0.5-0.4-0.8-0.6c-0.3-0.2-0.7-0.3-1.1-0.4c-0.4-0.1-0.9-0.3-1.3-0.4c-0.4-0.1-0.9-0.3-1.3-0.5
				c-0.4-0.2-0.8-0.5-1.1-0.8c-0.3-0.3-0.6-0.7-0.8-1.1c-0.2-0.4-0.3-1-0.3-1.6c0-0.6,0.1-1.1,0.3-1.7c0.2-0.5,0.6-1,1-1.4
				c0.4-0.4,1-0.7,1.7-0.9c0.7-0.2,1.4-0.4,2.3-0.4c1,0,1.9,0.2,2.7,0.5c0.8,0.3,1.5,0.7,2,1.3L442.7,80.3z"/>
			<path class="st1" d="M210.9,110.6c0.9,0,1.7,0.1,2.5,0.4c0.8,0.3,1.4,0.7,1.9,1.3c0.5,0.6,1,1.2,1.3,2s0.5,1.7,0.5,2.7
				c0,0.3,0,0.5,0,0.6c0,0.2-0.1,0.3-0.1,0.4c-0.1,0.1-0.1,0.2-0.2,0.2c-0.1,0-0.2,0.1-0.4,0.1h-8.8c0.1,1.5,0.5,2.5,1.2,3.2
				c0.7,0.7,1.6,1,2.7,1c0.6,0,1-0.1,1.4-0.2c0.4-0.1,0.8-0.3,1.1-0.4c0.3-0.2,0.6-0.3,0.8-0.4c0.2-0.1,0.4-0.2,0.7-0.2
				c0.1,0,0.3,0,0.4,0.1c0.1,0.1,0.2,0.1,0.3,0.2l1,1.2c-0.4,0.4-0.8,0.8-1.3,1.1c-0.5,0.3-1,0.5-1.5,0.7c-0.5,0.2-1,0.3-1.6,0.4
				c-0.5,0.1-1,0.1-1.5,0.1c-1,0-1.9-0.2-2.8-0.5c-0.9-0.3-1.6-0.8-2.2-1.5s-1.1-1.4-1.5-2.4c-0.4-0.9-0.5-2-0.5-3.3
				c0-1,0.2-1.9,0.5-2.7c0.3-0.9,0.8-1.6,1.4-2.2c0.6-0.6,1.3-1.1,2.1-1.5C208.9,110.8,209.8,110.6,210.9,110.6z M211,113.1
				c-1,0-1.8,0.3-2.3,0.8c-0.6,0.6-0.9,1.4-1.1,2.4h6.4c0-0.4-0.1-0.9-0.2-1.3c-0.1-0.4-0.3-0.7-0.6-1c-0.2-0.3-0.6-0.5-0.9-0.7
				C211.9,113.2,211.5,113.1,211,113.1z"/>
			<path class="st1" d="M219.9,125.1v-14.2h2.1c0.4,0,0.7,0.2,0.9,0.6l0.2,1.1c0.3-0.3,0.6-0.6,0.9-0.8s0.7-0.4,1-0.6
				c0.4-0.2,0.7-0.3,1.1-0.4s0.9-0.1,1.3-0.1c0.8,0,1.5,0.1,2.1,0.4c0.6,0.3,1.1,0.6,1.5,1.1c0.4,0.5,0.7,1,0.9,1.7
				c0.2,0.7,0.3,1.4,0.3,2.2v9.1h-3.4V116c0-0.9-0.2-1.5-0.6-2c-0.4-0.5-1-0.7-1.8-0.7c-0.6,0-1.1,0.1-1.7,0.4
				c-0.5,0.3-1,0.6-1.5,1.1v10.3H219.9z"/>
			<path class="st1" d="M242.2,125.1h-3.1l-5.7-14.2h2.8c0.2,0,0.5,0.1,0.6,0.2c0.2,0.1,0.3,0.3,0.4,0.5l2.7,7.6
				c0.2,0.4,0.3,0.9,0.4,1.3c0.1,0.4,0.2,0.9,0.3,1.3c0.1-0.4,0.2-0.9,0.3-1.3c0.1-0.4,0.2-0.9,0.4-1.3l2.8-7.6
				c0.1-0.2,0.2-0.3,0.3-0.5c0.2-0.1,0.4-0.2,0.6-0.2h2.7L242.2,125.1z"/>
			<path class="st1" d="M254.1,106.7c0,0.3-0.1,0.6-0.2,0.8c-0.1,0.3-0.3,0.5-0.5,0.7c-0.2,0.2-0.4,0.3-0.7,0.5s-0.6,0.2-0.9,0.2
				c-0.3,0-0.6-0.1-0.8-0.2c-0.3-0.1-0.5-0.3-0.7-0.5c-0.2-0.2-0.3-0.4-0.5-0.7c-0.1-0.3-0.2-0.5-0.2-0.8c0-0.3,0.1-0.6,0.2-0.9
				c0.1-0.3,0.3-0.5,0.5-0.7c0.2-0.2,0.4-0.3,0.7-0.5c0.3-0.1,0.5-0.2,0.8-0.2c0.3,0,0.6,0.1,0.9,0.2s0.5,0.3,0.7,0.5
				c0.2,0.2,0.4,0.4,0.5,0.7C254,106.1,254.1,106.4,254.1,106.7z M253.6,110.8v14.2h-3.4v-14.2H253.6z"/>
			<path class="st1" d="M263.3,110.6c0.9,0,1.7,0.1,2.5,0.4c0.8,0.3,1.4,0.7,1.9,1.3c0.5,0.6,1,1.2,1.3,2s0.5,1.7,0.5,2.7
				c0,0.3,0,0.5,0,0.6c0,0.2-0.1,0.3-0.1,0.4c-0.1,0.1-0.1,0.2-0.2,0.2c-0.1,0-0.2,0.1-0.4,0.1h-8.8c0.1,1.5,0.5,2.5,1.2,3.2
				c0.7,0.7,1.6,1,2.7,1c0.6,0,1-0.1,1.4-0.2c0.4-0.1,0.8-0.3,1.1-0.4c0.3-0.2,0.6-0.3,0.8-0.4c0.2-0.1,0.4-0.2,0.7-0.2
				c0.1,0,0.3,0,0.4,0.1c0.1,0.1,0.2,0.1,0.3,0.2l1,1.2c-0.4,0.4-0.8,0.8-1.3,1.1c-0.5,0.3-1,0.5-1.5,0.7c-0.5,0.2-1,0.3-1.6,0.4
				c-0.5,0.1-1,0.1-1.5,0.1c-1,0-1.9-0.2-2.8-0.5c-0.9-0.3-1.6-0.8-2.2-1.5s-1.1-1.4-1.5-2.4c-0.4-0.9-0.5-2-0.5-3.3
				c0-1,0.2-1.9,0.5-2.7c0.3-0.9,0.8-1.6,1.4-2.2c0.6-0.6,1.3-1.1,2.1-1.5C261.3,110.8,262.2,110.6,263.3,110.6z M263.4,113.1
				c-1,0-1.8,0.3-2.3,0.8c-0.6,0.6-0.9,1.4-1.1,2.4h6.4c0-0.4-0.1-0.9-0.2-1.3c-0.1-0.4-0.3-0.7-0.6-1c-0.2-0.3-0.6-0.5-0.9-0.7
				C264.3,113.2,263.9,113.1,263.4,113.1z"/>
			<path class="st1" d="M280.7,110.8v9c0,0.9,0.2,1.5,0.6,2c0.4,0.5,1,0.7,1.8,0.7c0.6,0,1.1-0.1,1.7-0.4c0.5-0.3,1-0.6,1.5-1.1
				v-10.3h3.4v14.2h-2.1c-0.4,0-0.7-0.2-0.9-0.6l-0.2-1.1c-0.3,0.3-0.6,0.6-0.9,0.8c-0.3,0.2-0.6,0.5-1,0.6
				c-0.4,0.2-0.7,0.3-1.2,0.4s-0.9,0.1-1.3,0.1c-0.8,0-1.5-0.1-2.1-0.4c-0.6-0.3-1.1-0.6-1.5-1.1s-0.7-1.1-0.9-1.7
				c-0.2-0.7-0.3-1.4-0.3-2.2v-9H280.7z"/>
			<path class="st1" d="M293.4,125.1v-14.2h2.1c0.4,0,0.7,0.2,0.9,0.6l0.2,1.1c0.2-0.3,0.5-0.5,0.8-0.8c0.3-0.2,0.6-0.4,0.9-0.6
				c0.3-0.2,0.6-0.3,1-0.4c0.4-0.1,0.7-0.1,1.2-0.1c0.9,0,1.6,0.2,2.2,0.7c0.6,0.5,1,1.1,1.3,1.9c0.2-0.5,0.5-0.9,0.8-1.2
				c0.3-0.3,0.7-0.6,1.1-0.8c0.4-0.2,0.8-0.4,1.3-0.5c0.4-0.1,0.9-0.2,1.4-0.2c0.8,0,1.5,0.1,2.1,0.4s1.1,0.6,1.5,1.1
				c0.4,0.5,0.7,1,0.9,1.7c0.2,0.7,0.3,1.4,0.3,2.3v9.1h-3.4V116c0-0.9-0.2-1.6-0.6-2c-0.4-0.5-1-0.7-1.7-0.7c-0.4,0-0.7,0.1-1,0.2
				c-0.3,0.1-0.6,0.3-0.8,0.5s-0.4,0.5-0.5,0.9s-0.2,0.7-0.2,1.2v9.1h-3.4V116c0-1-0.2-1.6-0.6-2.1c-0.4-0.4-0.9-0.7-1.7-0.7
				c-0.5,0-0.9,0.1-1.4,0.4c-0.4,0.2-0.8,0.6-1.2,1v10.4H293.4z"/>
			<path class="st1" d="M327.8,125.1h-1.5c-0.3,0-0.6,0-0.8-0.1c-0.2-0.1-0.3-0.3-0.4-0.6l-0.3-1c-0.4,0.3-0.7,0.6-1.1,0.9
				c-0.3,0.2-0.7,0.5-1.1,0.6s-0.8,0.3-1.2,0.4c-0.4,0.1-0.9,0.1-1.4,0.1c-0.6,0-1.2-0.1-1.7-0.2s-0.9-0.4-1.3-0.7
				c-0.4-0.3-0.6-0.7-0.9-1.2c-0.2-0.5-0.3-1-0.3-1.7c0-0.5,0.1-1.1,0.4-1.6c0.3-0.5,0.8-1,1.4-1.4s1.5-0.8,2.6-1.1
				c1.1-0.3,2.4-0.4,4.1-0.4v-0.8c0-1-0.2-1.7-0.6-2.1c-0.4-0.5-1-0.7-1.8-0.7c-0.6,0-1,0.1-1.4,0.2c-0.4,0.1-0.7,0.3-1,0.4
				s-0.5,0.3-0.8,0.4s-0.5,0.2-0.8,0.2c-0.2,0-0.4-0.1-0.6-0.2c-0.2-0.1-0.3-0.3-0.4-0.4l-0.6-1.1c1.6-1.5,3.6-2.2,5.9-2.2
				c0.8,0,1.6,0.1,2.2,0.4c0.7,0.3,1.2,0.7,1.7,1.1c0.5,0.5,0.8,1.1,1,1.7c0.2,0.7,0.4,1.4,0.4,2.2V125.1z M321.2,122.9
				c0.4,0,0.7,0,1-0.1s0.6-0.2,0.8-0.3c0.3-0.1,0.5-0.3,0.8-0.5c0.2-0.2,0.5-0.4,0.7-0.7V119c-1,0-1.8,0.1-2.5,0.2
				c-0.7,0.1-1.2,0.3-1.6,0.5c-0.4,0.2-0.7,0.4-0.9,0.7c-0.2,0.3-0.3,0.5-0.3,0.9c0,0.6,0.2,1,0.5,1.3S320.6,122.9,321.2,122.9z"/>
			<path class="st1" d="M336.6,125.1v-14.2h2.1c0.4,0,0.7,0.2,0.9,0.6l0.2,1.1c0.2-0.3,0.5-0.5,0.8-0.8c0.3-0.2,0.6-0.4,0.9-0.6
				c0.3-0.2,0.6-0.3,1-0.4c0.4-0.1,0.7-0.1,1.2-0.1c0.9,0,1.6,0.2,2.2,0.7c0.6,0.5,1,1.1,1.3,1.9c0.2-0.5,0.5-0.9,0.8-1.2
				c0.3-0.3,0.7-0.6,1.1-0.8c0.4-0.2,0.8-0.4,1.3-0.5c0.4-0.1,0.9-0.2,1.4-0.2c0.8,0,1.5,0.1,2.1,0.4s1.1,0.6,1.5,1.1
				c0.4,0.5,0.7,1,0.9,1.7c0.2,0.7,0.3,1.4,0.3,2.3v9.1h-3.4V116c0-0.9-0.2-1.6-0.6-2c-0.4-0.5-1-0.7-1.7-0.7c-0.4,0-0.7,0.1-1,0.2
				c-0.3,0.1-0.6,0.3-0.8,0.5s-0.4,0.5-0.5,0.9s-0.2,0.7-0.2,1.2v9.1h-3.4V116c0-1-0.2-1.6-0.6-2.1c-0.4-0.4-0.9-0.7-1.7-0.7
				c-0.5,0-0.9,0.1-1.4,0.4c-0.4,0.2-0.8,0.6-1.2,1v10.4H336.6z"/>
			<path class="st1" d="M365.8,110.6c0.9,0,1.7,0.1,2.5,0.4c0.8,0.3,1.4,0.7,1.9,1.3c0.5,0.6,1,1.2,1.3,2s0.5,1.7,0.5,2.7
				c0,0.3,0,0.5,0,0.6c0,0.2-0.1,0.3-0.1,0.4c-0.1,0.1-0.1,0.2-0.2,0.2c-0.1,0-0.2,0.1-0.4,0.1h-8.8c0.1,1.5,0.5,2.5,1.2,3.2
				c0.7,0.7,1.6,1,2.7,1c0.6,0,1-0.1,1.4-0.2c0.4-0.1,0.8-0.3,1.1-0.4c0.3-0.2,0.6-0.3,0.8-0.4c0.2-0.1,0.4-0.2,0.7-0.2
				c0.1,0,0.3,0,0.4,0.1c0.1,0.1,0.2,0.1,0.3,0.2l1,1.2c-0.4,0.4-0.8,0.8-1.3,1.1c-0.5,0.3-1,0.5-1.5,0.7c-0.5,0.2-1,0.3-1.6,0.4
				c-0.5,0.1-1,0.1-1.5,0.1c-1,0-1.9-0.2-2.8-0.5c-0.9-0.3-1.6-0.8-2.2-1.5s-1.1-1.4-1.5-2.4c-0.4-0.9-0.5-2-0.5-3.3
				c0-1,0.2-1.9,0.5-2.7c0.3-0.9,0.8-1.6,1.4-2.2c0.6-0.6,1.3-1.1,2.1-1.5C363.8,110.8,364.7,110.6,365.8,110.6z M365.9,113.1
				c-1,0-1.8,0.3-2.3,0.8c-0.6,0.6-0.9,1.4-1.1,2.4h6.4c0-0.4-0.1-0.9-0.2-1.3c-0.1-0.4-0.3-0.7-0.6-1c-0.2-0.3-0.6-0.5-0.9-0.7
				C366.8,113.2,366.4,113.1,365.9,113.1z"/>
			<path class="st1" d="M374.7,125.1v-14.2h2.1c0.4,0,0.7,0.2,0.9,0.6l0.2,1.1c0.3-0.3,0.6-0.6,0.9-0.8s0.7-0.4,1-0.6
				c0.4-0.2,0.7-0.3,1.1-0.4s0.9-0.1,1.3-0.1c0.8,0,1.5,0.1,2.1,0.4c0.6,0.3,1.1,0.6,1.5,1.1c0.4,0.5,0.7,1,0.9,1.7
				c0.2,0.7,0.3,1.4,0.3,2.2v9.1h-3.4V116c0-0.9-0.2-1.5-0.6-2c-0.4-0.5-1-0.7-1.8-0.7c-0.6,0-1.1,0.1-1.7,0.4
				c-0.5,0.3-1,0.6-1.5,1.1v10.3H374.7z"/>
			<path class="st1" d="M398.9,113.6c-0.1,0.1-0.2,0.3-0.3,0.3s-0.2,0.1-0.4,0.1c-0.2,0-0.3,0-0.5-0.1s-0.4-0.2-0.7-0.3
				c-0.2-0.1-0.5-0.2-0.9-0.3c-0.3-0.1-0.7-0.1-1.1-0.1c-0.7,0-1.2,0.1-1.6,0.4c-0.4,0.3-0.6,0.7-0.6,1.1c0,0.3,0.1,0.6,0.3,0.8
				s0.5,0.4,0.8,0.5c0.3,0.2,0.7,0.3,1.1,0.4c0.4,0.1,0.8,0.3,1.3,0.4s0.9,0.3,1.3,0.5c0.4,0.2,0.8,0.4,1.1,0.7
				c0.3,0.3,0.6,0.6,0.8,1s0.3,0.9,0.3,1.5c0,0.7-0.1,1.3-0.4,1.9s-0.6,1.1-1.1,1.5c-0.5,0.4-1.1,0.7-1.8,1
				c-0.7,0.2-1.5,0.4-2.4,0.4c-0.5,0-1,0-1.4-0.1c-0.5-0.1-0.9-0.2-1.3-0.4c-0.4-0.2-0.8-0.3-1.2-0.6c-0.4-0.2-0.7-0.4-1-0.7
				l0.8-1.3c0.1-0.2,0.2-0.3,0.4-0.4s0.3-0.1,0.5-0.1c0.2,0,0.4,0.1,0.6,0.2c0.2,0.1,0.4,0.2,0.7,0.4c0.2,0.1,0.5,0.3,0.9,0.4
				c0.3,0.1,0.8,0.2,1.3,0.2c0.4,0,0.8,0,1-0.1c0.3-0.1,0.5-0.2,0.7-0.4c0.2-0.2,0.3-0.3,0.4-0.5s0.1-0.4,0.1-0.6
				c0-0.3-0.1-0.6-0.3-0.8c-0.2-0.2-0.5-0.4-0.8-0.6s-0.7-0.3-1.1-0.4c-0.4-0.1-0.9-0.3-1.3-0.4s-0.9-0.3-1.3-0.5
				c-0.4-0.2-0.8-0.5-1.1-0.8c-0.3-0.3-0.6-0.7-0.8-1.1c-0.2-0.4-0.3-1-0.3-1.6c0-0.6,0.1-1.1,0.3-1.7s0.6-1,1-1.4
				c0.4-0.4,1-0.7,1.7-0.9c0.7-0.2,1.4-0.4,2.3-0.4c1,0,1.9,0.2,2.7,0.5c0.8,0.3,1.5,0.7,2,1.3L398.9,113.6z"/>
			<path class="st1" d="M413.8,125.1h-1.5c-0.3,0-0.6,0-0.8-0.1s-0.3-0.3-0.4-0.6l-0.3-1c-0.4,0.3-0.7,0.6-1.1,0.9
				c-0.3,0.2-0.7,0.5-1.1,0.6s-0.8,0.3-1.2,0.4c-0.4,0.1-0.9,0.1-1.4,0.1c-0.6,0-1.2-0.1-1.7-0.2s-0.9-0.4-1.3-0.7
				c-0.4-0.3-0.6-0.7-0.9-1.2c-0.2-0.5-0.3-1-0.3-1.7c0-0.5,0.1-1.1,0.4-1.6c0.3-0.5,0.8-1,1.4-1.4c0.7-0.4,1.5-0.8,2.6-1.1
				c1.1-0.3,2.4-0.4,4.1-0.4v-0.8c0-1-0.2-1.7-0.6-2.1s-1-0.7-1.8-0.7c-0.6,0-1,0.1-1.4,0.2c-0.4,0.1-0.7,0.3-1,0.4
				s-0.5,0.3-0.8,0.4s-0.5,0.2-0.8,0.2c-0.2,0-0.4-0.1-0.6-0.2c-0.2-0.1-0.3-0.3-0.4-0.4l-0.6-1.1c1.6-1.5,3.6-2.2,5.9-2.2
				c0.8,0,1.6,0.1,2.2,0.4c0.7,0.3,1.2,0.7,1.7,1.1c0.5,0.5,0.8,1.1,1,1.7c0.2,0.7,0.4,1.4,0.4,2.2V125.1z M407.1,122.9
				c0.4,0,0.7,0,1-0.1c0.3-0.1,0.6-0.2,0.8-0.3s0.5-0.3,0.8-0.5s0.5-0.4,0.7-0.7V119c-1,0-1.8,0.1-2.5,0.2c-0.7,0.1-1.2,0.3-1.6,0.5
				c-0.4,0.2-0.7,0.4-0.9,0.7c-0.2,0.3-0.3,0.5-0.3,0.9c0,0.6,0.2,1,0.5,1.3S406.5,122.9,407.1,122.9z"/>
			<path class="st1" d="M422,110.6c0.6,0,1.2,0.1,1.7,0.2c0.5,0.1,1,0.3,1.5,0.5h4.1v1.3c0,0.2-0.1,0.4-0.2,0.5
				c-0.1,0.1-0.3,0.2-0.6,0.2l-1.3,0.2c0.1,0.2,0.2,0.5,0.2,0.8s0.1,0.5,0.1,0.8c0,0.7-0.1,1.3-0.4,1.9s-0.7,1.1-1.2,1.4
				c-0.5,0.4-1.1,0.7-1.8,0.9c-0.7,0.2-1.4,0.3-2.2,0.3c-0.5,0-1.1-0.1-1.6-0.2c-0.4,0.3-0.7,0.6-0.7,0.9c0,0.3,0.1,0.5,0.4,0.6
				c0.3,0.1,0.6,0.2,1,0.3c0.4,0.1,0.9,0.1,1.5,0.1c0.5,0,1.1,0,1.7,0.1c0.6,0,1.1,0.1,1.7,0.2c0.5,0.1,1,0.3,1.5,0.5s0.8,0.6,1,1
				c0.3,0.4,0.4,1,0.4,1.7c0,0.6-0.2,1.2-0.5,1.8c-0.3,0.6-0.8,1.1-1.3,1.6c-0.6,0.5-1.3,0.8-2.2,1.1c-0.9,0.3-1.8,0.4-2.9,0.4
				c-1.1,0-2-0.1-2.8-0.3s-1.5-0.5-2-0.8c-0.5-0.3-0.9-0.7-1.2-1.2c-0.3-0.5-0.4-0.9-0.4-1.4c0-0.7,0.2-1.2,0.6-1.7
				c0.4-0.5,1-0.8,1.7-1.1c-0.4-0.2-0.6-0.5-0.8-0.8c-0.2-0.3-0.3-0.7-0.3-1.3c0-0.2,0-0.4,0.1-0.7s0.2-0.5,0.3-0.7s0.3-0.4,0.6-0.6
				c0.2-0.2,0.5-0.4,0.8-0.5c-0.7-0.4-1.3-0.9-1.7-1.6c-0.4-0.6-0.6-1.4-0.6-2.3c0-0.7,0.1-1.3,0.4-1.9c0.3-0.6,0.7-1.1,1.2-1.5
				s1.1-0.7,1.8-0.9C420.5,110.7,421.2,110.6,422,110.6z M425.8,125.7c0-0.3-0.1-0.5-0.3-0.7s-0.4-0.3-0.7-0.4
				c-0.3-0.1-0.6-0.2-1-0.2c-0.4,0-0.8-0.1-1.2-0.1s-0.9,0-1.3,0c-0.5,0-0.9-0.1-1.3-0.2c-0.4,0.2-0.7,0.5-0.9,0.8
				c-0.2,0.3-0.4,0.6-0.4,1c0,0.2,0.1,0.5,0.2,0.7c0.1,0.2,0.3,0.4,0.6,0.6s0.6,0.3,1.1,0.4c0.4,0.1,1,0.1,1.6,0.1
				c0.6,0,1.2,0,1.6-0.1s0.8-0.2,1.1-0.4c0.3-0.2,0.5-0.4,0.7-0.6S425.8,125.9,425.8,125.7z M422,117.6c0.4,0,0.8-0.1,1.1-0.2
				c0.3-0.1,0.6-0.3,0.8-0.5s0.4-0.4,0.5-0.7c0.1-0.3,0.2-0.6,0.2-0.9c0-0.7-0.2-1.3-0.6-1.7c-0.4-0.4-1.1-0.6-1.9-0.6
				s-1.5,0.2-1.9,0.6c-0.4,0.4-0.6,1-0.6,1.7c0,0.3,0.1,0.6,0.2,0.9s0.3,0.5,0.5,0.7c0.2,0.2,0.5,0.4,0.8,0.5
				C421.3,117.6,421.6,117.6,422,117.6z"/>
			<path class="st1" d="M437.4,110.6c0.9,0,1.7,0.1,2.5,0.4c0.8,0.3,1.4,0.7,1.9,1.3c0.5,0.6,1,1.2,1.3,2c0.3,0.8,0.5,1.7,0.5,2.7
				c0,0.3,0,0.5,0,0.6c0,0.2-0.1,0.3-0.1,0.4c-0.1,0.1-0.1,0.2-0.2,0.2c-0.1,0-0.2,0.1-0.4,0.1h-8.8c0.1,1.5,0.5,2.5,1.2,3.2
				c0.7,0.7,1.6,1,2.7,1c0.6,0,1-0.1,1.4-0.2s0.8-0.3,1.1-0.4c0.3-0.2,0.6-0.3,0.8-0.4c0.2-0.1,0.4-0.2,0.7-0.2c0.1,0,0.3,0,0.4,0.1
				c0.1,0.1,0.2,0.1,0.3,0.2l1,1.2c-0.4,0.4-0.8,0.8-1.3,1.1s-1,0.5-1.5,0.7c-0.5,0.2-1,0.3-1.6,0.4c-0.5,0.1-1,0.1-1.5,0.1
				c-1,0-1.9-0.2-2.8-0.5s-1.6-0.8-2.2-1.5c-0.6-0.6-1.1-1.4-1.5-2.4c-0.4-0.9-0.5-2-0.5-3.3c0-1,0.2-1.9,0.5-2.7s0.8-1.6,1.4-2.2
				c0.6-0.6,1.3-1.1,2.1-1.5C435.3,110.8,436.3,110.6,437.4,110.6z M437.4,113.1c-1,0-1.8,0.3-2.3,0.8c-0.6,0.6-0.9,1.4-1.1,2.4h6.4
				c0-0.4-0.1-0.9-0.2-1.3c-0.1-0.4-0.3-0.7-0.6-1c-0.2-0.3-0.6-0.5-0.9-0.7C438.4,113.2,437.9,113.1,437.4,113.1z"/>
			<path class="st1" d="M446.3,125.1v-14.2h2.1c0.4,0,0.7,0.2,0.9,0.6l0.2,1.1c0.2-0.3,0.5-0.5,0.8-0.8s0.6-0.4,0.9-0.6
				s0.6-0.3,1-0.4c0.4-0.1,0.7-0.1,1.2-0.1c0.9,0,1.6,0.2,2.2,0.7c0.6,0.5,1,1.1,1.3,1.9c0.2-0.5,0.5-0.9,0.8-1.2
				c0.3-0.3,0.7-0.6,1.1-0.8c0.4-0.2,0.8-0.4,1.3-0.5c0.4-0.1,0.9-0.2,1.4-0.2c0.8,0,1.5,0.1,2.1,0.4c0.6,0.2,1.1,0.6,1.5,1.1
				c0.4,0.5,0.7,1,1,1.7c0.2,0.7,0.3,1.4,0.3,2.3v9.1h-3.4V116c0-0.9-0.2-1.6-0.6-2s-1-0.7-1.7-0.7c-0.4,0-0.7,0.1-1,0.2
				c-0.3,0.1-0.6,0.3-0.8,0.5c-0.2,0.2-0.4,0.5-0.5,0.9c-0.1,0.3-0.2,0.7-0.2,1.2v9.1h-3.4V116c0-1-0.2-1.6-0.6-2.1
				c-0.4-0.4-1-0.7-1.7-0.7c-0.5,0-1,0.1-1.4,0.4c-0.4,0.2-0.8,0.6-1.2,1v10.4H446.3z"/>
			<path class="st1" d="M470.7,123.2c0-0.3,0.1-0.6,0.2-0.8s0.3-0.5,0.4-0.7s0.4-0.3,0.7-0.4s0.5-0.2,0.8-0.2c0.3,0,0.6,0.1,0.8,0.2
				s0.5,0.3,0.7,0.4c0.2,0.2,0.3,0.4,0.4,0.7s0.2,0.5,0.2,0.8c0,0.3-0.1,0.6-0.2,0.8c-0.1,0.3-0.3,0.5-0.4,0.7
				c-0.2,0.2-0.4,0.3-0.7,0.4s-0.5,0.2-0.8,0.2c-0.3,0-0.6-0.1-0.8-0.2s-0.5-0.3-0.7-0.4c-0.2-0.2-0.3-0.4-0.4-0.7
				C470.8,123.8,470.7,123.5,470.7,123.2z M474.5,105v7.9c0,0.8,0,1.7-0.1,2.5c-0.1,0.8-0.2,1.7-0.3,2.6h-2.3
				c-0.1-0.9-0.3-1.8-0.3-2.6c-0.1-0.8-0.1-1.6-0.1-2.5V105H474.5z"/>
		</g>
		<g>
			<path class="st1" d="M187.4,95.7c0-0.2,0-0.5,0-0.7c0-1.1-0.1-2.1-0.2-3.2c0-0.2,0-0.3,0-0.5c-0.1-1-0.2-1.9-0.3-2.9
				c0-0.2,0-0.3-0.1-0.5c-0.1-1-0.3-2.1-0.4-3.1c0-0.2-0.1-0.4-0.1-0.6c-0.4-2.1-0.8-4.2-1.3-6.3c0-0.2-0.1-0.3-0.1-0.5
				c-0.3-1-0.5-2.1-0.8-3.1c0,0,0-0.1,0-0.1c-0.3-1.1-0.6-2.1-1-3.1c0-0.1,0-0.1-0.1-0.2c-0.4-1.1-0.7-2.1-1.1-3.1
				c0-0.1,0-0.1-0.1-0.2c-0.8-2.1-1.7-4.2-2.6-6.2c0,0,0,0,0,0c-14.2-30.3-44.9-51.3-80.5-51.3h-0.1C49.6,10.2,9.8,50,9.8,99
				c0,19.4,6.3,37.4,16.9,52.1l-0.1,0.3c0,0,0,0,0,0l-11,32.7l34.1-10.9c14,9.3,30.8,14.7,48.9,14.7c49,0,88.8-39.9,88.8-88.8
				C187.4,97.9,187.4,96.8,187.4,95.7z"/>
			<g>
				<path class="st2" d="M98.6,21.6L98.6,21.6L98.6,21.6c-42.7,0-77.4,34.7-77.4,77.4c0,16.9,5.5,32.6,14.7,45.4l-9.6,28.8l29.8-9.5
					c12.2,8.1,26.8,12.8,42.6,12.8c42.7,0,77.4-34.7,77.4-77.4C176,56.3,141.3,21.6,98.6,21.6z M143.7,130.9
					c-1.9,5.3-9.3,9.6-15.2,10.9c-4.1,0.9-9.3,1.5-27.1-5.8c-22.8-9.4-37.4-32.5-38.5-34c-1.1-1.5-9.2-12.2-9.2-23.3
					s5.6-16.5,7.9-18.8c1.9-1.9,5-2.8,7.9-2.8c1,0,1.8,0,2.6,0.1c2.3,0.1,3.4,0.2,4.9,3.8c1.9,4.5,6.4,15.6,7,16.7
					c0.5,1.1,1.1,2.7,0.3,4.2c-0.7,1.5-1.4,2.2-2.5,3.6c-1.1,1.3-2.2,2.3-3.4,3.7c-1,1.2-2.2,2.5-0.9,4.8c1.3,2.2,5.9,9.6,12.6,15.6
					c8.6,7.7,15.7,10.2,18.2,11.2c1.9,0.8,4.1,0.6,5.5-0.9c1.7-1.9,3.9-5,6.1-8c1.5-2.2,3.5-2.5,5.5-1.7c2.1,0.7,13.2,6.2,15.4,7.3
					c2.3,1.1,3.8,1.7,4.3,2.6C145.5,121.1,145.5,125.6,143.7,130.9z"/>
				<path class="st3" d="M21.2,99c0,16.9,5.5,32.6,14.7,45.4l-9.6,28.8l29.8-9.5c12.2,8.1,26.8,12.8,42.6,12.8
					c42.7,0,77.4-34.7,77.4-77.4c0-42.7-34.7-77.4-77.4-77.4h0l0,0 M143.7,130.9c-1.9,5.3-9.3,9.6-15.2,10.9
					c-4.1,0.9-9.3,1.5-27.1-5.8c-22.8-9.4-37.4-32.5-38.5-34c-1.1-1.5-9.2-12.2-9.2-23.3s5.6-16.5,7.9-18.8c1.9-1.9,5-2.8,7.9-2.8
					c1,0,1.8,0,2.6,0.1c2.3,0.1,3.4,0.2,4.9,3.8c1.9,4.5,6.4,15.6,7,16.7c0.5,1.1,1.1,2.7,0.3,4.2c-0.7,1.5-1.4,2.2-2.5,3.6
					c-1.1,1.3-2.2,2.3-3.4,3.7c-1,1.2-2.2,2.5-0.9,4.8c1.3,2.2,5.9,9.6,12.6,15.6c8.6,7.7,15.7,10.2,18.2,11.2
					c1.9,0.8,4.1,0.6,5.5-0.9c1.7-1.9,3.9-5,6.1-8c1.5-2.2,3.5-2.5,5.5-1.7c2.1,0.7,13.2,6.2,15.4,7.3c2.3,1.1,3.8,1.7,4.3,2.6
					C145.5,121.1,145.5,125.6,143.7,130.9z"/>
				<g>
					<path class="st4" d="M123.4,25.7C143.1,42.5,156,68.3,156,90.2c0,12-3.9,23.3-10.7,32.9c-0.1,2-0.5,4.7-1.6,7.8
						c-1.9,5.3-9.3,9.6-15.2,10.9c-1.1,0.2-2.3,0.4-3.8,0.5c-13,8.1-29,12.9-46.4,12.9c-15.7,0-30.2-3.9-42.4-10.6l-9.6,28.5
						l29.8-9.5c12.2,8.1,26.8,12.8,42.6,12.8c42.7,0,77.4-34.7,77.4-77.4C176,65,153.9,36,123.4,25.7z"/>
					<path class="st4" d="M125.2,110.2c0.5,0.2,1.6,0.6,2.9,1.3L76.4,59.7c0.2,0.3,0.4,0.7,0.5,1.2c1.9,4.5,6.4,15.6,7,16.7
						c0.5,1.1,1.1,2.7,0.3,4.2c-0.7,1.5-1.4,2.2-2.5,3.6c-1.1,1.3-2.2,2.3-3.4,3.7c-1,1.2-2.2,2.5-0.9,4.8
						c1.3,2.2,5.9,9.6,12.6,15.6c8.6,7.7,15.7,10.2,18.2,11.2c1.9,0.8,4.1,0.6,5.5-0.9c1.7-1.9,3.9-5,6.1-8
						C121.2,109.7,123.2,109.4,125.2,110.2z"/>
				</g>
				<path class="st5" d="M53.6,78.7l-0.5,0.5l0.6,0.6C53.6,79.4,53.6,79,53.6,78.7z"/>
			</g>
		</g>
	</g>
</g>
</svg>
